<?xml version="1.0" encoding="utf-8"?>
<!-- Generator: Adobe Illustrator 22.0.1, SVG Export Plug-In . SVG Version: 6.00 Build 0)  -->
<svg version="1.1" id="Layer_1" xmlns="http://www.w3.org/2000/svg" xmlns:xlink="http://www.w3.org/1999/xlink" x="0px" y="0px"
	 viewBox="0 0 191.3 25.1" style="enable-background:new 0 0 191.3 25.1;" xml:space="preserve">
<style type="text/css">
	.st0{fill:#231F20;}
</style>
<g>
	<g>
		<path class="st0" d="M4.8,16.8c24.6-2.7,49.3-4.6,74.1-5.7c12.1-0.5,24.2-0.8,36.3-0.9c6.1-0.1,12.2-0.1,18.3,0
			c5.2,0.1,10.7,0.2,15.2,3.1c5.4,3.6,10.4-5.1,5-8.6c-8.9-6-21.5-4.6-31.7-4.5c-13.1,0-26.2,0.3-39.3,0.8c-26.1,1-52.1,3-78,5.9
			C-1.6,7.5-1.6,17.6,4.8,16.8L4.8,16.8z"/>
	</g>
</g>
<g>
	<g>
		<path class="st0" d="M14.1,11.7C71.5,12.1,129,12.6,186.5,13c6.4,0.1,6.4-9.9,0-10C129,2.6,71.5,2.1,14.1,1.7
			C7.6,1.6,7.6,11.6,14.1,11.7L14.1,11.7z"/>
	</g>
</g>
<g>
	<g>
		<path class="st0" d="M26.4,25.1c34.4,0,68.8,0,103.1,0c6.4,0,6.4-10,0-10c-34.4,0-68.8,0-103.1,0C19.9,15.1,19.9,25.1,26.4,25.1
			L26.4,25.1z"/>
	</g>
</g>
</svg>
