<?xml version="1.0" encoding="utf-8"?>
<!-- Generator: Adobe Illustrator 25.0.1, SVG Export Plug-In . SVG Version: 6.00 Build 0)  -->
<svg version="1.1" id="Layer_1" xmlns="http://www.w3.org/2000/svg" xmlns:xlink="http://www.w3.org/1999/xlink" x="0px" y="0px"
	 viewBox="0 0 823.1 93.5" style="enable-background:new 0 0 823.1 93.5;" xml:space="preserve">
<g>
	<g>
		<path d="M48.8,32.3l-14.2,39h-11l-14.1-39h11.1l8.6,23.3l8.7-23.3H48.8z"/>
		<path d="M84.4,32.3h10.7v39H84.4v-5.4c-3.6,4.6-7.8,6.7-13.6,6.7c-11,0-18.8-8.5-18.8-20.4C52,40,60.3,31,71.7,31
			c5.3,0,8.9,1.9,12.7,6.3V32.3z M63.5,52.1c0,6.8,4.5,12,10.3,12c6,0,10.8-5.6,10.8-12.3c0-6.9-4.4-11.8-10.7-11.8
			C67.8,40,63.5,44.9,63.5,52.1z"/>
		<path d="M117.6,32.3v4.8c2.9-4.5,5.7-6.2,10.6-6.2c3.7,0,7.3,1.3,9.6,3.6c2.5,2.5,3.5,5.6,3.5,12.1v24.7h-10.7V47.1
			c0-2.2-0.3-3.5-0.9-4.6c-1-1.6-3-2.6-5.1-2.6c-4.1,0-6.9,3.1-6.9,7.7v23.7h-10.7v-39H117.6z"/>
		<path d="M159.8,54.4c0.9,5.4,4.9,8.8,10.2,8.8c4,0,7.3-1.9,9-5.1l9.9,2.7c-3.9,7.6-10.7,11.9-19,11.9c-12.4,0-21.2-8.8-21.2-20.9
			c0-12.2,8.5-20.8,20.6-20.8c12.5,0,21.2,8.8,21.2,21.3l-0.1,2.1H159.8z M179.4,48.2c-0.9-5.1-4.6-8.3-9.9-8.3
			c-5.1,0-8.6,3-9.6,8.3H179.4z"/>
		<path d="M217.7,43.6v-0.7c0-2.4-2.1-4-5-4c-2.6,0-4.3,1.4-4.3,3.5c0,1,0.4,2,1.1,2.5c1.2,0.9,1.3,0.9,6.7,2.6
			c8.8,2.7,12.2,6.2,12.2,12.5c0,7.6-6.1,12.6-15.2,12.6c-9.3,0-14.9-4.7-15.3-12.8h10.3c0.5,3.4,2,4.9,5.1,4.9
			c2.5,0,4.3-1.5,4.3-3.7c0-2.4-1.5-3.5-7.3-5.2c-8.4-2.5-12.2-6.3-12.2-12.5c0-7.4,6-12.4,15.1-12.4c8.9,0,14.3,4.7,14.6,12.6
			H217.7z"/>
		<path d="M254.8,43.6v-0.7c0-2.4-2.1-4-5-4c-2.6,0-4.3,1.4-4.3,3.5c0,1,0.4,2,1.1,2.5c1.2,0.9,1.3,0.9,6.7,2.6
			c8.8,2.7,12.2,6.2,12.2,12.5c0,7.6-6.1,12.6-15.2,12.6c-9.3,0-14.9-4.7-15.3-12.8h10.3c0.5,3.4,2,4.9,5.1,4.9
			c2.5,0,4.3-1.5,4.3-3.7c0-2.4-1.5-3.5-7.3-5.2c-8.4-2.5-12.2-6.3-12.2-12.5c0-7.4,6-12.4,15.1-12.4c8.9,0,14.3,4.7,14.6,12.6
			H254.8z"/>
		<path d="M304.4,32.3h10.7v39h-10.7v-5.4c-3.6,4.6-7.8,6.7-13.6,6.7c-11,0-18.8-8.5-18.8-20.4C272,40,280.3,31,291.7,31
			c5.3,0,8.9,1.9,12.7,6.3V32.3z M283.5,52.1c0,6.8,4.5,12,10.3,12c6,0,10.8-5.6,10.8-12.3c0-6.9-4.4-11.8-10.7-11.8
			C287.8,40,283.5,44.9,283.5,52.1z"/>
		<path d="M336.1,32.5V39c1.2-2.8,2-4,3.5-5.1c1.9-1.5,4.6-2.4,7.4-2.4h1.5V38c-0.7-0.1-1.3-0.1-1.8-0.1c-3.5,0-6.5,1.6-8.4,4.5
			c-1.7,2.4-2.3,4.7-2.3,9.2v19.7h-6.4V32.5H336.1z"/>
		<path d="M386.8,32.5v24.9c0,5.3-1,8.3-3.9,10.9s-6.8,4-11.2,4s-8.4-1.5-11.2-4.1c-2.6-2.5-3.9-6.1-3.9-10.8V32.5h6.4v24.7
			c0,5.5,3.5,9.4,8.7,9.4c2.7,0,5.3-1.1,6.9-3c1.3-1.5,1.7-3.1,1.7-6.2V32.5H386.8z"/>
		<path d="M417.8,43.1v-0.4c0-3.6-3-5.9-7.4-5.9c-4.3,0-7,2.2-7,5.6s1.7,4.6,8.7,6.6c5,1.3,7.6,2.6,9.4,4.5c1.9,1.9,3.1,4.7,3.1,7.6
			c0,6.7-5.6,11.3-13.8,11.3c-8.9,0-13.8-4.1-14.5-12h6.3c0.4,4.4,3.3,6.7,8.2,6.7c4.4,0,7.2-2.3,7.2-5.7c0-3.4-2.2-5.1-8.9-6.7
			c-8.4-2.3-12.2-5.8-12.2-11.7c0-6.7,5.5-11.3,13.7-11.3c8.3,0,13.2,4.2,13.6,11.5H417.8z"/>
		<path d="M464.8,32.5v24.9c0,5.3-1,8.3-3.9,10.9s-6.8,4-11.2,4s-8.4-1.5-11.2-4.1c-2.6-2.5-3.9-6.1-3.9-10.8V32.5h6.4v24.7
			c0,5.5,3.5,9.4,8.7,9.4c2.7,0,5.3-1.1,6.9-3c1.3-1.5,1.7-3.1,1.7-6.2V32.5H464.8z"/>
	</g>
</g>
<g>
	<g>
		<path d="M544.3,68.7c-2,0-3.5-0.7-4.6-2.2c-1.1-1.5-1.7-3.6-1.7-6.1c0-2.2,0.3-4.2,1-6.1c0.7-1.9,1.6-3.5,2.7-4.8
			c1.1-1.3,2.4-2.3,3.9-3.1c1.5-0.7,3-1.1,4.6-1.1c1.9,0,3.8,0.4,5.8,1.1l1.4-8.2c0.2-1.2,0.2-2.1,0-2.6c-0.2-0.6-0.8-1-1.8-1.2
			l-1.6-0.3l0.1-0.4l7.4-1.6l0.3,0.6l-5.4,30.4c-0.1,0.7-0.2,1.2-0.2,1.7c0,0.6,0.1,1,0.3,1.1c0.2,0.1,0.5,0.2,0.9,0.2
			c1.1,0,2.5-0.7,4.1-2l0.4,0.4c-1.4,1.4-2.5,2.4-3.4,3c-0.9,0.7-1.9,1-2.9,1c-1.2,0-2.1-0.4-2.5-1.2c-0.4-0.8-0.5-2.1-0.1-4
			l0.4-1.9c-1.4,2.1-2.9,3.9-4.5,5.2C547.2,68.1,545.7,68.7,544.3,68.7z M545.8,66.3c1.3,0,2.6-0.6,4.1-1.9c1.4-1.3,2.7-2.9,3.8-4.7
			l0.8-4.2c0.3-1.4,0.4-2.7,0.4-3.9c0-1.7-0.4-3-1.2-4c-0.8-1-2.1-1.5-4.1-1.5c-1.5,0-2.8,0.6-4,1.7c-1.2,1.1-2.1,2.7-2.8,4.7
			c-0.7,2-1,4.2-1,6.6c0,2.3,0.3,4.1,1,5.3C543.5,65.7,544.5,66.3,545.8,66.3z"/>
		<path d="M568.8,68.6c-2.5,0-3.4-1.6-2.8-4.8l2.4-12.7c0.2-1.1,0.2-2,0-2.5c-0.2-0.6-0.8-1-1.8-1.2L565,47l0.1-0.4l7.6-1.6l0.3,0.6
			l-3.4,17.5c0,0.3-0.1,0.6-0.1,1s-0.1,0.6-0.1,0.7c0,0.5,0.1,0.8,0.3,1c0.2,0.2,0.5,0.3,1,0.3c1.1,0,2.5-0.7,4.1-2l0.4,0.4
			c-1.3,1.3-2.4,2.3-3.4,3C570.7,68.2,569.8,68.6,568.8,68.6z M573.8,39.1c-0.5,0.5-1.1,0.7-1.8,0.7s-1.3-0.2-1.8-0.7
			s-0.7-1.1-0.7-1.8s0.2-1.3,0.7-1.8c0.5-0.5,1.1-0.7,1.8-0.7s1.4,0.2,1.8,0.7c0.5,0.5,0.7,1.1,0.7,1.8S574.3,38.7,573.8,39.1z"/>
		<path d="M592.2,45.8h8.1l-0.6,2.3l-5.9-1.4c1.9,1.4,2.9,3.2,2.9,5.4c0,1.5-0.4,2.9-1.3,4.1c-0.9,1.2-2,2.1-3.4,2.7
			c-1.4,0.6-2.9,0.9-4.5,0.9c-1.4,0-2.6-0.2-3.7-0.6c-0.6,0.4-0.9,0.8-1.2,1.1s-0.3,0.7-0.3,1c0,0.5,0.3,1,0.9,1.4
			c0.6,0.4,1.5,0.8,2.8,1.3l1.8,0.7c0.5,0.2,1.1,0.4,1.9,0.7c2.3,0.8,3.9,1.7,4.9,2.5c1,0.8,1.5,1.8,1.5,3c0,1.6-0.5,3-1.5,4.2
			c-1,1.2-2.3,2.1-4,2.8s-3.5,1-5.5,1c-3,0-5.6-0.6-7.7-1.7c-2.1-1.1-3.2-2.6-3.2-4.4c0-1.4,0.7-2.7,2.1-3.8s3.5-2.1,6.2-3
			c-2-0.8-2.9-1.9-2.9-3.3c0-0.5,0.3-1.1,0.8-1.7c0.6-0.6,1.5-1.2,2.7-2c-1.4-0.6-2.5-1.4-3.3-2.4c-0.8-1-1.2-2.2-1.2-3.6
			c0-2.3,0.9-4.2,2.7-5.7c1.8-1.5,4.1-2.3,6.8-2.3C589.6,44.9,591,45.2,592.2,45.8z M583.3,66.3c-1.8,0.6-3.2,1.4-4.2,2.3
			c-1,1-1.5,2.1-1.5,3.3c0,1.6,0.8,3,2.5,4.1c1.7,1.1,3.6,1.7,5.9,1.7c1.4,0,2.8-0.2,4-0.6c1.2-0.4,2.2-1,3-1.9
			c0.8-0.8,1.2-1.8,1.2-2.9c0-0.9-0.6-1.7-1.8-2.4c-1.1-0.7-2.7-1.4-4.7-2.1c-0.5-0.2-1-0.4-1.4-0.5s-0.9-0.3-1.5-0.5
			C584.2,66.6,583.7,66.4,583.3,66.3z M587.3,59c1.6,0,2.9-0.8,4-2.4c1.1-1.6,1.6-3.5,1.6-5.6c0-1.5-0.4-2.8-1.3-3.8
			c-0.9-1-2-1.5-3.5-1.5c-1.7,0-3.1,0.8-4.2,2.3c-1.1,1.5-1.7,3.3-1.7,5.5c0,1.5,0.4,2.8,1.3,3.9C584.5,58.4,585.7,59,587.3,59z"/>
		<path d="M605.2,68.6c-2.5,0-3.4-1.6-2.8-4.8l2.4-12.7c0.2-1.1,0.2-2,0-2.5c-0.2-0.6-0.8-1-1.8-1.2l-1.7-0.3l0.1-0.4l7.6-1.6
			l0.3,0.6l-3.4,17.5c0,0.3-0.1,0.6-0.1,1s-0.1,0.6-0.1,0.7c0,0.5,0.1,0.8,0.3,1c0.2,0.2,0.5,0.3,1,0.3c1.1,0,2.5-0.7,4.1-2l0.4,0.4
			c-1.3,1.3-2.4,2.3-3.4,3C607.2,68.2,606.2,68.6,605.2,68.6z M610.3,39.1c-0.5,0.5-1.1,0.7-1.8,0.7s-1.3-0.2-1.8-0.7
			s-0.7-1.1-0.7-1.8s0.2-1.3,0.7-1.8c0.5-0.5,1.1-0.7,1.8-0.7s1.4,0.2,1.8,0.7c0.5,0.5,0.7,1.1,0.7,1.8S610.8,38.7,610.3,39.1z"/>
		<path d="M619.5,68.7c-1.4,0-2.4-0.4-3.1-1.1c-0.7-0.8-1-1.8-1-3.1c0-0.7,0.1-1.4,0.2-2l2.9-15.3h-3.4l0-0.6l4-1.3l2.8-6.3h1.7
			l-1.2,6.5h6.6l-0.2,1.7h-6.6l-2.8,15c-0.3,1.5-0.4,2.7-0.1,3.4c0.3,0.7,1,1.1,2.1,1.1c1.5,0,3-0.5,4.6-1.5l0.4,0.4
			c-0.8,0.8-1.8,1.5-2.9,2.2C622.1,68.3,620.9,68.7,619.5,68.7z"/>
		<path d="M634.8,68.7c-1.8,0-3.2-0.7-4.3-2.2c-1.1-1.5-1.6-3.5-1.6-6.1c0-2.2,0.3-4.2,1-6c0.7-1.9,1.6-3.5,2.8-4.9
			c1.1-1.3,2.5-2.4,3.9-3.1c1.5-0.7,3-1.1,4.6-1.1c1,0,2.2,0.2,3.4,0.5c1.2,0.3,2.3,0.7,3.3,1.2l1.8-2h0.9l-3.5,18.3
			c-0.1,0.5-0.2,1.1-0.2,1.6c0,0.9,0.4,1.4,1.3,1.4c1.1,0,2.4-0.7,4.1-2l0.4,0.4c-1.4,1.4-2.5,2.4-3.4,3c-0.9,0.7-1.9,1-2.9,1
			c-1.2,0-2.1-0.4-2.5-1.2c-0.4-0.8-0.5-2.1-0.1-4l0.4-1.9c-1.4,2.2-2.9,3.9-4.5,5.3C637.9,68.1,636.3,68.7,634.8,68.7z M636.4,66.3
			c1.3,0,2.7-0.6,4.1-1.9c1.4-1.3,2.7-2.8,3.8-4.7l0.8-4.2c0.3-1.4,0.5-2.8,0.5-4.2c0-1.6-0.4-2.9-1.1-3.8c-0.7-0.9-2-1.4-3.8-1.4
			c-1.4,0-2.8,0.6-4,1.8s-2.2,2.8-2.9,4.8c-0.7,2-1,4.1-1,6.5s0.3,4.1,0.9,5.3S635.2,66.3,636.4,66.3z"/>
		<path d="M658.9,68.6c-1.2,0-2-0.4-2.5-1.3c-0.5-0.9-0.6-2-0.3-3.5l4.6-25.8c0.2-1.2,0.2-2,0-2.5c-0.3-0.5-0.8-0.9-1.7-1l-1.7-0.3
			l0.1-0.4l7.5-1.6l0.4,0.6l-5.6,31c-0.2,0.8-0.2,1.5,0,1.8c0.2,0.4,0.5,0.6,1,0.6c1.2,0,2.6-0.7,4.2-2l0.4,0.4
			c-1.4,1.4-2.5,2.4-3.4,3C660.9,68.2,659.9,68.6,658.9,68.6z"/>
		<path d="M686.2,68.8c-2.4,0-4.3-0.4-5.6-1.1s-1.9-1.6-1.9-2.5c0-0.5,0.3-0.9,0.8-1.2c0.5-0.4,1-0.6,1.7-0.6c0.6,0,1.1,0.4,1.6,1.1
			c0.5,0.7,0.9,1.8,1.2,3.3c0.4,0.3,1.1,0.4,2.1,0.4c1.5,0,2.8-0.4,3.9-1.3c1.1-0.9,1.6-2.1,1.6-3.5c0-1-0.3-1.8-0.9-2.4
			c-0.6-0.6-1.8-1.5-3.7-2.5c-1.9-1-3.3-1.9-4.2-2.9s-1.3-2.1-1.3-3.5c0-1.9,0.8-3.6,2.3-5s3.6-2.1,6.2-2.1c2.1,0,3.7,0.4,4.8,1.1
			c1.1,0.7,1.6,1.5,1.6,2.4c0,0.6-0.3,1-0.8,1.3c-0.5,0.3-1,0.5-1.4,0.5c-0.4,0-0.9-0.3-1.5-0.9c-0.6-0.6-1-1.8-1.4-3.5
			c-0.3-0.1-0.7-0.1-1.2-0.1c-1.3,0-2.5,0.5-3.5,1.5c-1,1-1.5,2.1-1.5,3.4c0,1,0.3,1.8,0.9,2.5c0.6,0.7,1.7,1.4,3.4,2.3
			c1.8,1,3.3,2,4.3,2.9c1,0.9,1.5,2,1.5,3.3c0,2.2-0.9,3.9-2.6,5.2S688.7,68.8,686.2,68.8z"/>
		<path d="M704.5,68.7c-1.4,0-2.4-0.4-3.1-1.1c-0.7-0.8-1-1.8-1-3.1c0-0.7,0.1-1.4,0.2-2l2.9-15.3H700l0-0.6l4-1.3l2.8-6.3h1.7
			l-1.2,6.5h6.6l-0.2,1.7H707l-2.8,15c-0.3,1.5-0.4,2.7-0.1,3.4c0.3,0.7,1,1.1,2.1,1.1c1.5,0,3-0.5,4.6-1.5l0.4,0.4
			c-0.8,0.8-1.8,1.5-2.9,2.2C707.2,68.3,705.9,68.7,704.5,68.7z"/>
		<path d="M720.2,68.8c-2.8,0-4.2-1.5-4.2-4.4c0-0.7,0.1-1.6,0.3-2.5l2.2-11c0.2-1.1,0.3-2,0.1-2.5c-0.1-0.6-0.8-0.9-1.9-1.2L715,47
			l0.1-0.4l7.6-1.5l0.4,0.6L720,61.5c-0.1,0.3-0.2,0.7-0.3,1.3c-0.1,0.6-0.1,1.1-0.1,1.4c0,0.6,0.2,1.1,0.5,1.5s0.8,0.6,1.4,0.6
			c0.8,0,1.6-0.4,2.6-1.1c1-0.7,1.9-1.6,2.8-2.5c1-1.1,1.8-2.1,2.5-3c0.7-1.1,1.3-1.9,1.6-2.5l2.2-11.5h3.5l-3.4,17.6
			c-0.2,1-0.3,1.7-0.1,2.2c0.1,0.5,0.5,0.8,1.1,0.8c1.1,0,2.5-0.7,4.1-2l0.4,0.4c-1.4,1.4-2.5,2.4-3.4,3c-0.9,0.7-1.9,1-2.9,1
			c-0.6,0-1.1-0.1-1.5-0.3c-0.4-0.2-0.7-0.5-0.9-0.8c-0.2-0.3-0.3-0.8-0.3-1.5c0-0.6,0-1.3,0.1-1.9c0.1-0.7,0.2-1.5,0.4-2.5l0.5-2.7
			C726.5,65.5,723,68.8,720.2,68.8z"/>
		<path d="M747.3,68.7c-2,0-3.5-0.7-4.6-2.2c-1.1-1.5-1.7-3.6-1.7-6.1c0-2.2,0.3-4.2,1-6.1c0.7-1.9,1.6-3.5,2.7-4.8
			c1.1-1.3,2.4-2.3,3.9-3.1c1.5-0.7,3-1.1,4.6-1.1c1.9,0,3.8,0.4,5.8,1.1l1.4-8.2c0.2-1.2,0.2-2.1,0-2.6c-0.2-0.6-0.8-1-1.8-1.2
			l-1.6-0.3l0.1-0.4l7.4-1.6l0.3,0.6l-5.4,30.4c-0.1,0.7-0.2,1.2-0.2,1.7c0,0.6,0.1,1,0.3,1.1c0.2,0.1,0.5,0.2,0.9,0.2
			c1.1,0,2.5-0.7,4.1-2l0.4,0.4c-1.4,1.4-2.5,2.4-3.4,3c-0.9,0.7-1.9,1-2.9,1c-1.2,0-2.1-0.4-2.5-1.2c-0.4-0.8-0.5-2.1-0.1-4
			l0.4-1.9c-1.4,2.1-2.9,3.9-4.5,5.2C750.2,68.1,748.7,68.7,747.3,68.7z M748.8,66.3c1.3,0,2.6-0.6,4.1-1.9c1.4-1.3,2.7-2.9,3.8-4.7
			l0.8-4.2c0.3-1.4,0.4-2.7,0.4-3.9c0-1.7-0.4-3-1.2-4c-0.8-1-2.1-1.5-4.1-1.5c-1.5,0-2.8,0.6-4,1.7c-1.2,1.1-2.1,2.7-2.8,4.7
			c-0.7,2-1,4.2-1,6.6c0,2.3,0.3,4.1,1,5.3C746.5,65.7,747.5,66.3,748.8,66.3z"/>
		<path d="M771.8,68.6c-2.5,0-3.4-1.6-2.8-4.8l2.4-12.7c0.2-1.1,0.2-2,0-2.5c-0.2-0.6-0.8-1-1.8-1.2L768,47l0.1-0.4l7.6-1.6l0.3,0.6
			l-3.4,17.5c0,0.3-0.1,0.6-0.1,1s-0.1,0.6-0.1,0.7c0,0.5,0.1,0.8,0.3,1c0.2,0.2,0.5,0.3,1,0.3c1.1,0,2.5-0.7,4.1-2l0.4,0.4
			c-1.3,1.3-2.4,2.3-3.4,3C773.7,68.2,772.8,68.6,771.8,68.6z M776.8,39.1c-0.5,0.5-1.1,0.7-1.8,0.7s-1.3-0.2-1.8-0.7
			s-0.7-1.1-0.7-1.8s0.2-1.3,0.7-1.8c0.5-0.5,1.1-0.7,1.8-0.7s1.4,0.2,1.8,0.7c0.5,0.5,0.7,1.1,0.7,1.8S777.3,38.7,776.8,39.1z"/>
		<path d="M789.9,68.8c-2.5,0-4.6-0.8-6.3-2.5s-2.5-4-2.5-7.1c0-2,0.3-4,1-5.8c0.7-1.8,1.5-3.3,2.6-4.6c1.1-1.2,2.4-2.2,4-2.9
			c1.5-0.7,3.1-1.1,4.8-1.1c1.2,0,2.3,0.2,3.4,0.6c1.1,0.4,2,1,2.8,1.8c0.8,0.8,1.5,1.8,1.9,3c0.5,1.2,0.7,2.6,0.7,4.2
			c0,2.1-0.3,4-1,5.8s-1.5,3.3-2.6,4.6s-2.4,2.2-4,2.9C793.2,68.5,791.6,68.8,789.9,68.8z M790.4,68c1.4,0,2.7-0.6,3.9-1.9
			c1.2-1.3,2.2-3,2.9-5.3c0.7-2.2,1.1-4.7,1.1-7.3c0-2.5-0.5-4.5-1.6-5.8c-1-1.3-2.3-2-3.9-2c-1.4,0-2.7,0.6-3.9,1.9
			c-1.2,1.3-2.2,3-2.9,5.3c-0.7,2.2-1.1,4.6-1.1,7.3c0,2.5,0.5,4.5,1.5,5.8C787.5,67.3,788.8,68,790.4,68z"/>
		<path d="M807.1,68.4c-0.8,0-1.4-0.2-1.9-0.7s-0.7-1.1-0.7-1.9s0.2-1.4,0.7-1.9s1.1-0.8,1.9-0.8c0.7,0,1.4,0.3,1.9,0.8
			s0.7,1.1,0.7,1.9s-0.2,1.4-0.7,1.9S807.8,68.4,807.1,68.4z"/>
	</g>
</g>
<rect x="500.8" y="27.2" width="4.1" height="51.1"/>
</svg>
