<?xml version="1.0" encoding="utf-8"?>
<!-- Generator: Adobe Illustrator 24.2.0, SVG Export Plug-In . SVG Version: 6.00 Build 0)  -->
<svg version="1.1" id="Layer_1" xmlns="http://www.w3.org/2000/svg" xmlns:xlink="http://www.w3.org/1999/xlink" x="0px" y="0px"
	 viewBox="0 0 639.6 80.8" style="enable-background:new 0 0 639.6 80.8;" xml:space="preserve">
<style type="text/css">
	.st0{fill:#FFB100;}
	.st1{fill:#2A2E2F;}
</style>
<g>
	<path class="st0" d="M515.9,67.1c0,0.7,0,1.4,0,2.1c-7.1,0-14.1,0-21.3,0c-0.6-2.4-1.3-4.8-2-7.3c-1.8,1.2-3.4,2.5-5.2,3.6
		c-3.1,2-6.4,3.5-10.1,4c-4.1,0.5-8.1,0.3-11.7-2.1c-2.6-1.7-4.1-4.2-4.8-7.2c-0.5-2.4-0.8-4.8-0.8-7.2c-0.1-6.4,0-12.8-0.1-19.1
		c0-1.6-0.1-3.3-0.4-4.9c-0.2-2-1.2-3.6-2.8-4.7c-0.7-0.5-1.4-1-2.1-1.5c-1.3-0.9-1.3-0.8-1.1-2.5c3.5-0.7,6.9-1.4,10.4-2.2
		c3.4-0.7,6.8-1.4,10.2-2.1c1.6-0.3,3,0.8,3,2.3c0,10.4,0,20.8,0,31.2c0,2.4,0.2,4.8,1.3,7c1.2,2.2,3.1,3.4,5.5,3.7
		c2.8,0.4,5.4-0.1,8.1-0.9c0.3-0.1,0.6-0.5,0.6-0.8c0-8.7,0-17.4-0.1-26.1c0-4.1-2.1-7-5.5-9.1c-0.3-0.2-0.5-0.4-0.8-0.5
		c-1.2-0.5-1.4-1.3-1.1-2.5c3-0.6,6-1.2,9.1-1.8c4.1-0.8,8.3-1.6,12.3-2.5c1.4-0.3,2.1,0.4,3,1.1c0.2,0.2,0.2,0.7,0.2,1.1
		c0,11.1,0,22.3,0,33.4c0,3.3,0.2,6.6,0.4,9.9c0.2,3.3,2,5.2,5.2,5.6C515.5,67,515.6,67.1,515.9,67.1z"/>
	<path class="st0" d="M600.6,20.2c5.7-1.1,11.3-2.2,16.9-3.3c1.7-0.3,3.3-0.7,5-1c1.3-0.2,2.7,0.9,2.7,2.2c0,11.5,0,23,0,34.5
		c0,3.1,0.2,6.2,0.5,9.2c0.4,3.4,1.5,4.4,4.8,5.2c0.2,0.1,0.5,0.1,0.8,0.2c0,0.7,0,1.3,0,2.1c-7.1,0-14.1,0-21.2,0
		c-0.6-2.4-1.3-4.8-2-7.4c-1.7,1.2-3.2,2.3-4.9,3.4c-3.2,2-6.6,3.7-10.4,4.2c-4.1,0.5-8.1,0.3-11.7-2.1c-2.6-1.7-4.2-4.2-4.8-7.2
		c-0.5-2.4-0.8-4.9-0.8-7.3c-0.1-6.3,0-12.6-0.1-19c0-1.7-0.1-3.4-0.4-5.1c-0.3-2.1-1.4-3.8-3.2-5c-0.8-0.6-1.7-1.1-2.5-1.6
		c-0.2-0.2-0.4-0.5-0.5-0.8c-0.2-1,0.2-1.4,1.2-1.6c6.5-1.3,13-2.7,19.5-4c1.6-0.3,3,0.8,3,2.4c0,10.9,0,21.9,0.1,32.8
		c0,2.3,0.5,4.5,2,6.4c1.2,1.6,2.9,2.3,4.9,2.6c2.7,0.4,5.4-0.1,8-0.9c0.3-0.1,0.6-0.5,0.6-0.8c0-8.7,0-17.3,0-26
		c0-4.2-2.2-7.2-5.7-9.3c-0.2-0.1-0.4-0.3-0.7-0.4C600.5,22.3,600.3,21.4,600.6,20.2z"/>
	<path class="st0" d="M426.3,27.2c1-1.3,2-2.7,3-4c1.9-2.4,3.9-4.7,6.6-6.4c2.4-1.5,8-1.8,10.2,0.2c0.9,0.8,1.7,1.8,2,3
		c0.6,3.4,0.6,6.7-1,9.8c-1,2-2.8,3-5,2.6c-3.8-0.7-7.5-1.5-11.3-2.2c-0.6-0.1-1.2,0-1.7,0.2c-3,1-3,1-3,4.2c0,6.4,0,12.7,0,19.1
		c0,2.4,0.3,4.7,0.5,7.1c0.3,2.7,1.8,4.5,4.4,5.3c1,0.3,1.9,0.7,2.9,0.9c0.8,0.2,1.3,0.5,1.1,1.4c0,0.3,0,0.6,0,1
		c-0.3,0-0.6,0.1-0.8,0.1c-6,0-12.1,0-18.1,0c-4.2,0-8.5,0-12.7,0c-0.5,0-1,0.1-1-0.7c0-0.7-0.3-1.5,0.8-1.7
		c0.6-0.1,1.1-0.3,1.7-0.4c2-0.5,3.1-1.9,3.4-3.8c0.3-2.3,0.6-4.6,0.6-6.9c0.1-8,0-16,0-24c0-1.2-0.2-2.4-0.4-3.6
		c-0.5-2.9-2.6-4.4-4.9-5.8c-0.7-0.4-1.5-0.8-1.2-1.8c0.1-0.3,0.4-0.8,0.8-0.9c2.7-0.6,5.4-1.2,8.2-1.7c3.6-0.7,7.3-1.5,10.9-2.2
		c0.7-0.1,1.6-0.2,2.3,0c1.1,0.4,1.5,1.2,1.5,2.5c-0.1,2.9,0,5.8,0,8.8C426.1,27.1,426.2,27.1,426.3,27.2z"/>
	<path class="st0" d="M523.4,59.3c0-2,0-4,0-6.1c0-0.7,0.2-0.9,1-0.9c1.4,0,2.8,0.1,4.2,0c0.7,0,1,0.2,1.2,0.9
		c0.8,3.1,2,5.9,4.1,8.4c2.7,3.2,6.2,4.6,10.3,4.6c2.2,0,4.3-0.6,6-2.2c2.9-2.7,3.1-8.9-1.8-11.2c-2.8-1.3-5.7-2.3-8.7-3.3
		c-3.7-1.3-7.4-2.6-10.5-5c-3.4-2.6-4.9-6-5.3-10.2c-0.3-4,0.6-7.6,3-10.8c2.4-3.3,5.7-5.5,9.6-6.8c4.8-1.6,9.7-1.4,14.6-0.7
		c3.2,0.5,6.3,1.3,9.2,2.6c0.6,0.3,0.8,0.6,0.8,1.3c0,3.8,0,7.6,0,11.5c0,0.8-0.3,1-1.1,1c-1.4,0-2.8,0-4.1,0
		c-0.7,0-0.9-0.2-1.1-0.9c-0.7-2.1-1.3-4.3-2.2-6.3c-1.4-2.9-3.5-5-6.8-5.6c-3.1-0.6-6.1-0.5-8.3,2.1c-3,3.5-1.8,9.1,2.6,11.2
		c2.6,1.3,5.5,2.1,8.3,3.1c3.7,1.3,7.4,2.6,10.6,5.1c3.3,2.5,4.9,5.8,5.1,9.9c0.2,2.9,0,5.7-1.2,8.4c-2.1,4.4-5.7,7.3-10.2,9
		c-4.4,1.7-9,2-13.6,1.6c-5-0.4-10-1.3-14.7-3.2c-0.7-0.3-1-0.6-1-1.4C523.5,63.2,523.4,61.2,523.4,59.3z"/>
</g>
<path class="st1" d="M56,17.4L37.6,67.9H23.3L5.1,17.4h14.4l11.2,30.1l11.2-30.1H56z"/>
<path class="st1" d="M100.3,17.4h13.8v50.4h-13.8v-7c-4.6,6-10.2,8.8-17.6,8.8c-14.2,0-24.3-11-24.3-26.3
	c0-15.9,10.7-27.6,25.3-27.6c6.9,0,11.5,2.4,16.4,8.2L100.3,17.4L100.3,17.4z M73.3,43c0,8.8,5.8,15.4,13.3,15.4
	c7.8,0,13.9-7.2,13.9-15.9c0-8.9-5.6-15.3-13.8-15.3C78.9,27.3,73.3,33.7,73.3,43z"/>
<path class="st1" d="M141.7,17.4v6.3c3.8-5.8,7.4-7.9,13.7-7.9c4.8,0,9.4,1.8,12.4,4.6c3.3,3.3,4.5,7.3,4.5,15.6v32h-13.8V36.6
	c0-2.9-0.4-4.5-1.3-5.9c-1.3-2.1-3.9-3.4-6.7-3.4c-5.4,0-8.9,4-8.9,9.9v30.6h-13.8V17.4H141.7z"/>
<path class="st1" d="M196.8,46c1.3,7,6.3,11.3,13.2,11.3c5.1,0,9.5-2.5,11.7-6.5l12.8,3.5c-5,9.8-13.8,15.4-24.5,15.4
	c-16.1,0-27.5-11.3-27.5-27c0-15.8,11-27,26.6-27c16.2,0,27.4,11.3,27.4,27.6l-0.1,2.8L196.8,46L196.8,46z M222.1,38
	c-1.3-6.7-6-10.7-12.8-10.7c-6.7,0-11.2,3.8-12.4,10.7H222.1z"/>
<path class="st1" d="M267.9,32v-0.9c0-3-2.8-5.3-6.4-5.3c-3.4,0-5.5,1.9-5.5,4.6c0,1.3,0.5,2.6,1.4,3.3c1.5,1.3,1.6,1.3,8.7,3.4
	c11.3,3.5,15.8,7.9,15.8,16.2c0,9.8-7.9,16.3-19.6,16.3c-12,0-19.3-6.1-19.8-16.6h13.3c0.6,4.4,2.6,6.3,6.7,6.3c3.3,0,5.5-2,5.5-4.8
	c0-3-2-4.5-9.4-6.8c-10.9-3.3-15.8-8.2-15.8-16.2c0-9.5,7.8-16.1,19.6-16.1c11.5,0,18.6,6.1,18.8,16.3H268L267.9,32L267.9,32z"/>
<path class="st1" d="M314.1,32v-0.9c0-3-2.8-5.3-6.4-5.3c-3.4,0-5.5,1.9-5.5,4.6c0,1.3,0.5,2.6,1.4,3.3c1.5,1.3,1.6,1.3,8.7,3.4
	C323.5,40.6,328,45,328,53.3c0,9.8-7.9,16.3-19.6,16.3c-12,0-19.3-6.1-19.8-16.6h13.3c0.6,4.4,2.6,6.3,6.7,6.3c3.3,0,5.5-2,5.5-4.8
	c0-3-2-4.5-9.4-6.8c-10.9-3.3-15.8-8.2-15.8-16.2c0-9.5,7.8-16.1,19.6-16.1c11.5,0,18.6,6.1,18.8,16.3h-13.2V32L314.1,32z"/>
<path class="st1" d="M376.7,17.4h13.8v50.4h-13.8v-7c-4.6,6-10.2,8.8-17.6,8.8c-14.2,0-24.3-11-24.3-26.3
	c0-15.9,10.7-27.6,25.3-27.6c6.9,0,11.5,2.4,16.4,8.2L376.7,17.4L376.7,17.4z M349.7,43c0,8.8,5.8,15.4,13.3,15.4
	c7.8,0,13.9-7.2,13.9-15.9c0-8.9-5.6-15.3-13.8-15.3C355.3,27.3,349.7,33.7,349.7,43z"/>
</svg>
