<?xml version="1.0" encoding="utf-8"?>
<!-- Generator: Adobe Illustrator 25.0.1, SVG Export Plug-In . SVG Version: 6.00 Build 0)  -->
<svg version="1.1" id="Layer_1" xmlns="http://www.w3.org/2000/svg" xmlns:xlink="http://www.w3.org/1999/xlink" x="0px" y="0px"
	 viewBox="0 0 643.7 91.9" style="enable-background:new 0 0 643.7 91.9;" xml:space="preserve">
<style type="text/css">
	.st0{fill:#FFB100;}
</style>
<g>
	<path d="M44.6,30.7L30.5,69.2H19.6L5.7,30.7h11l8.5,23l8.6-23H44.6z"/>
	<path d="M79.8,30.7h10.6v38.6H79.8v-5.3c-3.6,4.6-7.7,6.7-13.4,6.7c-10.8,0-18.6-8.4-18.6-20.2c0-12.2,8.2-21.1,19.4-21.1
		c5.2,0,8.8,1.8,12.6,6.2V30.7z M59.1,50.3c0,6.7,4.4,11.8,10.2,11.8c5.9,0,10.7-5.5,10.7-12.2c0-6.8-4.3-11.7-10.6-11.7
		C63.4,38.3,59.1,43.2,59.1,50.3z"/>
	<path d="M112.6,30.7v4.7c2.8-4.4,5.7-6.1,10.5-6.1c3.7,0,7.2,1.3,9.5,3.6c2.5,2.5,3.4,5.6,3.4,11.9v24.4h-10.6V45.3
		c0-2.2-0.2-3.4-0.9-4.5c-1-1.6-3-2.6-5.1-2.6c-4.1,0-6.8,3.1-6.8,7.6v23.4H102V30.7H112.6z"/>
	<path d="M154.3,52.5c0.9,5.3,4.8,8.7,10.1,8.7c3.9,0,7.2-1.9,8.9-5l9.7,2.7c-3.8,7.5-10.6,11.7-18.7,11.7c-12.2,0-21-8.7-21-20.7
		c0-12.1,8.4-20.6,20.3-20.6c12.3,0,20.9,8.7,20.9,21.1l-0.1,2.1H154.3z M173.7,46.4c-0.9-5.1-4.6-8.2-9.8-8.2
		c-5.1,0-8.5,2.9-9.5,8.2H173.7z"/>
	<path d="M211.6,41.8v-0.7c0-2.3-2.1-4-4.9-4c-2.6,0-4.2,1.4-4.2,3.5c0,1,0.4,2,1.1,2.5c1.2,0.9,1.2,0.9,6.6,2.6
		c8.7,2.7,12.1,6.1,12.1,12.3c0,7.5-6,12.5-15,12.5c-9.2,0-14.7-4.7-15.2-12.7h10.2c0.5,3.3,2,4.8,5.1,4.8c2.5,0,4.2-1.5,4.2-3.7
		c0-2.3-1.5-3.4-7.2-5.2c-8.3-2.5-12.1-6.2-12.1-12.3c0-7.3,5.9-12.2,14.9-12.2c8.8,0,14.2,4.7,14.4,12.5H211.6z"/>
	<path d="M248.1,41.8v-0.7c0-2.3-2.1-4-4.9-4c-2.6,0-4.2,1.4-4.2,3.5c0,1,0.4,2,1.1,2.5c1.2,0.9,1.2,0.9,6.6,2.6
		c8.7,2.7,12.1,6.1,12.1,12.3c0,7.5-6,12.5-15,12.5c-9.2,0-14.7-4.7-15.2-12.7h10.2c0.5,3.3,2,4.8,5.1,4.8c2.5,0,4.2-1.5,4.2-3.7
		c0-2.3-1.5-3.4-7.2-5.2c-8.3-2.5-12.1-6.2-12.1-12.3c0-7.3,5.9-12.2,14.9-12.2c8.8,0,14.2,4.7,14.4,12.5H248.1z"/>
	<path d="M297.2,30.7h10.6v38.6h-10.6v-5.3c-3.6,4.6-7.7,6.7-13.4,6.7c-10.8,0-18.6-8.4-18.6-20.2c0-12.2,8.2-21.1,19.4-21.1
		c5.2,0,8.8,1.8,12.6,6.2V30.7z M276.5,50.3c0,6.7,4.4,11.8,10.2,11.8c5.9,0,10.7-5.5,10.7-12.2c0-6.8-4.3-11.7-10.6-11.7
		C280.8,38.3,276.5,43.2,276.5,50.3z"/>
	<path d="M328.5,30.8v6.5c1.2-2.7,2-3.9,3.5-5.1c1.9-1.5,4.6-2.3,7.3-2.3h1.5v6.4c-0.7-0.1-1.3-0.1-1.7-0.1c-3.4,0-6.4,1.6-8.3,4.4
		c-1.7,2.4-2.2,4.7-2.2,9.1v19.5h-6.3V30.8H328.5z"/>
	<path d="M378.6,30.8v24.6c0,5.2-1,8.2-3.8,10.7s-6.7,4-11.1,4c-4.3,0-8.3-1.5-11.1-4.1c-2.6-2.5-3.8-6-3.8-10.7V30.8h6.3v24.4
		c0,5.4,3.5,9.2,8.6,9.2c2.7,0,5.2-1.1,6.8-2.9c1.2-1.5,1.7-3.1,1.7-6.2V30.8H378.6z"/>
	<path d="M409.2,41.3v-0.4c0-3.6-2.9-5.8-7.3-5.8c-4.2,0-6.9,2.2-6.9,5.5s1.7,4.6,8.6,6.5c4.9,1.3,7.5,2.6,9.3,4.4
		c1.9,1.9,3.1,4.7,3.1,7.5c0,6.7-5.5,11.2-13.7,11.2c-8.7,0-13.7-4.1-14.3-11.8h6.2c0.4,4.3,3.2,6.7,8.1,6.7c4.3,0,7.2-2.2,7.2-5.7
		c0-3.3-2.2-5-8.7-6.7c-8.3-2.2-12.1-5.7-12.1-11.6c0-6.7,5.4-11.2,13.5-11.2c8.2,0,13.1,4.2,13.4,11.4H409.2z"/>
	<path d="M455.7,30.8v24.6c0,5.2-1,8.2-3.8,10.7s-6.7,4-11.1,4c-4.3,0-8.3-1.5-11.1-4.1c-2.6-2.5-3.8-6-3.8-10.7V30.8h6.3v24.4
		c0,5.4,3.5,9.2,8.6,9.2c2.7,0,5.2-1.1,6.8-2.9c1.2-1.5,1.7-3.1,1.7-6.2V30.8H455.7z"/>
</g>
<g>
	<g>
		<path d="M532.9,44.6c-1.6,0-2.9-0.6-3.8-1.8c-0.9-1.3-1.4-2.9-1.4-5c0-1.8,0.3-3.5,0.8-5c0.6-1.6,1.3-2.9,2.2-4s2-1.9,3.2-2.5
			c1.2-0.6,2.5-0.9,3.8-0.9c1.5,0,3.1,0.3,4.8,0.9l1.2-6.7c0.2-1,0.2-1.7,0-2.2c-0.1-0.5-0.6-0.8-1.5-1l-1.3-0.2l0.1-0.3l6.1-1.3
			l0.3,0.5l-4.4,25c-0.1,0.6-0.2,1-0.2,1.4c0,0.5,0.1,0.8,0.3,0.9c0.2,0.1,0.4,0.1,0.7,0.1c0.9,0,2-0.5,3.3-1.6l0.3,0.3
			c-1.1,1.1-2.1,2-2.8,2.5c-0.8,0.5-1.6,0.8-2.4,0.8c-1,0-1.7-0.3-2.1-1s-0.4-1.8-0.1-3.3l0.3-1.6c-1.2,1.8-2.4,3.2-3.7,4.3
			C535.4,44.1,534.1,44.6,532.9,44.6z M534.2,42.7c1,0,2.1-0.5,3.3-1.6c1.2-1.1,2.2-2.3,3.1-3.8l0.6-3.4c0.2-1.2,0.3-2.3,0.3-3.2
			c0-1.4-0.3-2.5-1-3.3c-0.6-0.8-1.8-1.3-3.3-1.3c-1.2,0-2.3,0.5-3.3,1.4c-1,0.9-1.7,2.2-2.3,3.9c-0.5,1.6-0.8,3.4-0.8,5.4
			c0,1.9,0.3,3.4,0.8,4.4C532.3,42.2,533.1,42.7,534.2,42.7z"/>
		<path d="M553.1,44.5c-2.1,0-2.8-1.3-2.3-4l2-10.5c0.2-0.9,0.2-1.6,0-2.1c-0.1-0.5-0.6-0.8-1.5-1l-1.4-0.2l0.1-0.3l6.3-1.3l0.3,0.5
			l-2.8,14.4c0,0.2-0.1,0.5-0.1,0.8c0,0.3-0.1,0.5-0.1,0.6c0,0.4,0.1,0.7,0.2,0.8s0.4,0.2,0.8,0.2c0.9,0,2.1-0.5,3.4-1.6l0.3,0.3
			c-1.1,1.1-2,1.9-2.8,2.5C554.7,44.2,553.9,44.5,553.1,44.5z M557.3,20.3c-0.4,0.4-0.9,0.6-1.5,0.6s-1.1-0.2-1.5-0.6
			c-0.4-0.4-0.6-0.9-0.6-1.5c0-0.6,0.2-1.1,0.6-1.5c0.4-0.4,0.9-0.6,1.5-0.6s1.1,0.2,1.5,0.6c0.4,0.4,0.6,0.9,0.6,1.5
			C557.9,19.4,557.7,19.9,557.3,20.3z"/>
		<path d="M572.4,25.7h6.6l-0.5,1.9l-4.8-1.1c1.6,1.1,2.4,2.6,2.4,4.5c0,1.3-0.4,2.4-1.1,3.3c-0.7,1-1.7,1.7-2.8,2.2
			c-1.1,0.5-2.4,0.7-3.7,0.7c-1.1,0-2.1-0.2-3-0.5c-0.5,0.4-0.8,0.7-1,0.9c-0.2,0.3-0.3,0.5-0.3,0.8c0,0.4,0.2,0.8,0.7,1.1
			c0.5,0.3,1.2,0.7,2.3,1.1l1.5,0.5c0.4,0.1,0.9,0.3,1.5,0.6c1.9,0.7,3.2,1.4,4,2.1c0.8,0.7,1.2,1.5,1.2,2.5c0,1.3-0.4,2.4-1.2,3.4
			s-1.9,1.8-3.3,2.3c-1.4,0.5-2.9,0.8-4.6,0.8c-2.5,0-4.6-0.5-6.4-1.4c-1.7-0.9-2.6-2.1-2.6-3.6c0-1.2,0.6-2.2,1.7-3.1
			c1.1-0.9,2.8-1.7,5.1-2.5c-1.6-0.7-2.4-1.6-2.4-2.8c0-0.5,0.2-0.9,0.7-1.4c0.5-0.5,1.2-1,2.3-1.7c-1.2-0.5-2.1-1.1-2.7-2
			s-1-1.8-1-2.9c0-1.9,0.7-3.5,2.2-4.7c1.5-1.2,3.4-1.9,5.6-1.9C570.3,25,571.4,25.3,572.4,25.7z M565,42.6
			c-1.5,0.5-2.7,1.1-3.5,1.9c-0.8,0.8-1.2,1.7-1.2,2.7c0,1.3,0.7,2.5,2,3.4c1.4,0.9,3,1.4,4.9,1.4c1.2,0,2.3-0.2,3.3-0.5
			c1-0.3,1.8-0.8,2.5-1.5c0.6-0.7,1-1.5,1-2.4c0-0.7-0.5-1.4-1.5-1.9c-0.9-0.5-2.2-1.1-3.9-1.7c-0.4-0.2-0.8-0.3-1.2-0.4
			c-0.4-0.1-0.8-0.3-1.2-0.4C565.8,42.9,565.4,42.7,565,42.6z M568.4,36.6c1.3,0,2.4-0.7,3.3-2s1.3-2.9,1.3-4.7
			c0-1.3-0.4-2.3-1.1-3.1c-0.7-0.8-1.7-1.3-2.9-1.3c-1.4,0-2.5,0.6-3.4,1.9s-1.4,2.7-1.4,4.5c0,1.2,0.4,2.3,1.1,3.2
			C566.1,36.2,567.1,36.6,568.4,36.6z"/>
		<path d="M583.1,44.5c-2.1,0-2.8-1.3-2.3-4l2-10.5c0.2-0.9,0.2-1.6,0-2.1c-0.1-0.5-0.6-0.8-1.5-1l-1.4-0.2l0.1-0.3l6.3-1.3l0.3,0.5
			l-2.8,14.4c0,0.2-0.1,0.5-0.1,0.8c0,0.3-0.1,0.5-0.1,0.6c0,0.4,0.1,0.7,0.2,0.8s0.4,0.2,0.8,0.2c0.9,0,2.1-0.5,3.4-1.6l0.3,0.3
			c-1.1,1.1-2,1.9-2.8,2.5C584.8,44.2,583.9,44.5,583.1,44.5z M587.3,20.3c-0.4,0.4-0.9,0.6-1.5,0.6s-1.1-0.2-1.5-0.6
			c-0.4-0.4-0.6-0.9-0.6-1.5c0-0.6,0.2-1.1,0.6-1.5c0.4-0.4,0.9-0.6,1.5-0.6s1.1,0.2,1.5,0.6c0.4,0.4,0.6,0.9,0.6,1.5
			C587.9,19.4,587.7,19.9,587.3,20.3z"/>
		<path d="M594.9,44.6c-1.1,0-2-0.3-2.6-0.9c-0.6-0.6-0.9-1.5-0.9-2.6c0-0.6,0.1-1.2,0.2-1.6l2.4-12.6h-2.8l0-0.5l3.3-1.1l2.3-5.2
			h1.4l-1,5.4h5.4l-0.2,1.4h-5.4l-2.3,12.3c-0.3,1.3-0.3,2.2,0,2.8s0.8,0.9,1.7,0.9c1.2,0,2.5-0.4,3.8-1.3l0.3,0.3
			c-0.7,0.6-1.5,1.2-2.4,1.8C597,44.3,596,44.6,594.9,44.6z"/>
		<path d="M607.5,44.6c-1.5,0-2.7-0.6-3.6-1.8c-0.9-1.2-1.3-2.9-1.3-5c0-1.8,0.3-3.4,0.9-5c0.6-1.5,1.3-2.9,2.3-4
			c0.9-1.1,2-1.9,3.2-2.5c1.2-0.6,2.5-0.9,3.7-0.9c0.8,0,1.8,0.1,2.8,0.4c1,0.2,1.9,0.6,2.7,1l1.5-1.7h0.7l-2.9,15
			c-0.1,0.4-0.2,0.9-0.2,1.3c0,0.8,0.3,1.1,1,1.1c0.9,0,2-0.5,3.3-1.6l0.3,0.3c-1.1,1.1-2.1,2-2.8,2.5c-0.8,0.5-1.6,0.8-2.4,0.8
			c-1,0-1.7-0.3-2.1-1s-0.4-1.8-0.1-3.3l0.3-1.6c-1.2,1.8-2.4,3.2-3.7,4.3C610,44.1,608.8,44.6,607.5,44.6z M608.8,42.7
			c1.1,0,2.2-0.5,3.4-1.6c1.2-1.1,2.2-2.3,3.1-3.8l0.6-3.4c0.3-1.2,0.4-2.3,0.4-3.5c0-1.3-0.3-2.4-0.9-3.1c-0.6-0.8-1.7-1.1-3.2-1.1
			c-1.2,0-2.3,0.5-3.3,1.5s-1.8,2.3-2.4,3.9c-0.6,1.6-0.9,3.4-0.9,5.3c0,1.9,0.3,3.4,0.8,4.4C607.1,42.2,607.8,42.7,608.8,42.7z"/>
		<path d="M627.3,44.5c-1,0-1.7-0.4-2-1.1c-0.4-0.7-0.5-1.7-0.3-2.9l3.8-21.2c0.2-1,0.2-1.7,0-2.1c-0.2-0.4-0.7-0.7-1.4-0.9
			l-1.4-0.2l0.1-0.3l6.2-1.3l0.3,0.5L628,40.5c-0.1,0.7-0.1,1.2,0,1.5c0.1,0.3,0.4,0.5,0.8,0.5c1,0,2.2-0.5,3.5-1.6l0.3,0.3
			c-1.1,1.1-2.1,2-2.8,2.5C629,44.2,628.2,44.5,627.3,44.5z"/>
		<path d="M533,78.9c-2,0-3.5-0.3-4.6-0.9c-1.1-0.6-1.6-1.3-1.6-2.1c0-0.4,0.2-0.7,0.6-1c0.4-0.3,0.9-0.5,1.4-0.5
			c0.5,0,0.9,0.3,1.3,0.9s0.8,1.5,1,2.7c0.3,0.2,0.9,0.3,1.7,0.3c1.3,0,2.3-0.4,3.2-1.1s1.3-1.7,1.3-2.9c0-0.8-0.2-1.4-0.7-2
			s-1.5-1.2-3-2.1c-1.6-0.8-2.7-1.6-3.4-2.4s-1.1-1.7-1.1-2.9c0-1.6,0.6-3,1.9-4.1c1.3-1.1,3-1.7,5.1-1.7c1.7,0,3,0.3,3.9,0.9
			c0.9,0.6,1.3,1.3,1.3,2c0,0.5-0.2,0.8-0.6,1.1c-0.4,0.3-0.8,0.4-1.2,0.4c-0.4,0-0.8-0.2-1.2-0.7c-0.5-0.5-0.9-1.5-1.2-2.9
			c-0.2-0.1-0.6-0.1-1-0.1c-1.1,0-2,0.4-2.9,1.2c-0.8,0.8-1.3,1.8-1.3,2.8c0,0.8,0.2,1.5,0.7,2c0.5,0.6,1.4,1.2,2.8,1.9
			c1.5,0.8,2.7,1.7,3.6,2.4c0.8,0.8,1.3,1.7,1.3,2.8c0,1.8-0.7,3.2-2.1,4.3C536.8,78.4,535.1,78.9,533,78.9z"/>
		<path d="M548.1,78.8c-1.1,0-2-0.3-2.6-0.9c-0.6-0.6-0.9-1.5-0.9-2.6c0-0.6,0.1-1.2,0.2-1.6l2.4-12.6h-2.8l0-0.5l3.3-1.1l2.3-5.2
			h1.4l-1,5.4h5.4l-0.2,1.4h-5.4l-2.3,12.3c-0.3,1.3-0.3,2.2,0,2.8c0.2,0.6,0.8,0.9,1.7,0.9c1.2,0,2.5-0.4,3.8-1.3l0.3,0.3
			c-0.7,0.6-1.5,1.2-2.4,1.8C550.3,78.5,549.3,78.8,548.1,78.8z"/>
		<path d="M561,78.9c-2.3,0-3.4-1.2-3.4-3.6c0-0.6,0.1-1.3,0.2-2.1l1.8-9c0.2-0.9,0.2-1.6,0.1-2c-0.1-0.5-0.6-0.8-1.6-1l-1.3-0.2
			l0.1-0.3l6.2-1.2l0.3,0.5l-2.5,13c-0.1,0.3-0.1,0.6-0.2,1.1c-0.1,0.5-0.1,0.9-0.1,1.2c0,0.5,0.1,0.9,0.4,1.2
			c0.3,0.3,0.6,0.5,1.1,0.5c0.6,0,1.3-0.3,2.1-0.9c0.8-0.6,1.6-1.3,2.3-2.1c0.8-0.9,1.5-1.7,2.1-2.5c0.6-0.9,1-1.6,1.3-2.1l1.8-9.5
			h2.9l-2.8,14.5c-0.2,0.8-0.2,1.4-0.1,1.8c0.1,0.4,0.4,0.6,0.9,0.6c0.9,0,2.1-0.5,3.4-1.6l0.3,0.3c-1.1,1.1-2.1,2-2.8,2.5
			c-0.8,0.5-1.6,0.8-2.4,0.8c-0.5,0-0.9-0.1-1.3-0.3s-0.6-0.4-0.7-0.7c-0.2-0.3-0.3-0.7-0.3-1.2c0-0.5,0-1,0.1-1.6
			c0.1-0.5,0.2-1.2,0.3-2.1l0.4-2.2C566.2,76.2,563.3,78.9,561,78.9z"/>
		<path d="M583.3,78.9c-1.6,0-2.9-0.6-3.8-1.8c-0.9-1.3-1.4-2.9-1.4-5c0-1.8,0.3-3.5,0.8-5c0.6-1.6,1.3-2.9,2.2-4
			c0.9-1.1,2-1.9,3.2-2.5c1.2-0.6,2.5-0.9,3.8-0.9c1.5,0,3.1,0.3,4.8,0.9l1.2-6.7c0.2-1,0.2-1.7,0-2.2c-0.1-0.5-0.6-0.8-1.5-1
			l-1.3-0.2l0.1-0.3l6.1-1.3l0.3,0.5l-4.4,25c-0.1,0.6-0.2,1-0.2,1.4c0,0.5,0.1,0.8,0.3,0.9c0.2,0.1,0.4,0.1,0.7,0.1
			c0.9,0,2-0.5,3.3-1.6l0.3,0.3c-1.1,1.1-2.1,2-2.8,2.5c-0.8,0.5-1.6,0.8-2.4,0.8c-1,0-1.7-0.3-2.1-1s-0.4-1.8-0.1-3.3l0.3-1.6
			c-1.2,1.8-2.4,3.2-3.7,4.3C585.8,78.3,584.5,78.9,583.3,78.9z M584.6,76.9c1,0,2.1-0.5,3.3-1.6s2.2-2.3,3.1-3.8l0.6-3.4
			c0.2-1.2,0.3-2.3,0.3-3.2c0-1.4-0.3-2.5-1-3.3c-0.6-0.8-1.8-1.3-3.3-1.3c-1.2,0-2.3,0.5-3.3,1.4c-1,0.9-1.7,2.2-2.3,3.9
			c-0.5,1.6-0.8,3.4-0.8,5.4c0,1.9,0.3,3.4,0.8,4.4C582.7,76.4,583.5,76.9,584.6,76.9z"/>
		<path d="M603.5,78.7c-2.1,0-2.8-1.3-2.3-4l2-10.5c0.2-0.9,0.2-1.6,0-2.1c-0.1-0.5-0.6-0.8-1.5-1l-1.4-0.2l0.1-0.3l6.3-1.3l0.3,0.5
			l-2.8,14.4c0,0.2-0.1,0.5-0.1,0.8c0,0.3-0.1,0.5-0.1,0.6c0,0.4,0.1,0.7,0.2,0.8s0.4,0.2,0.8,0.2c0.9,0,2.1-0.5,3.4-1.6l0.3,0.3
			c-1.1,1.1-2,1.9-2.8,2.5C605.1,78.4,604.3,78.7,603.5,78.7z M607.7,54.5c-0.4,0.4-0.9,0.6-1.5,0.6s-1.1-0.2-1.5-0.6
			c-0.4-0.4-0.6-0.9-0.6-1.5s0.2-1.1,0.6-1.5c0.4-0.4,0.9-0.6,1.5-0.6s1.1,0.2,1.5,0.6c0.4,0.4,0.6,0.9,0.6,1.5
			S608.1,54.1,607.7,54.5z"/>
		<path d="M618.4,78.9c-2.1,0-3.8-0.7-5.2-2.1s-2.1-3.3-2.1-5.9c0-1.7,0.3-3.3,0.8-4.7c0.5-1.5,1.3-2.7,2.2-3.7c0.9-1,2-1.8,3.3-2.4
			c1.3-0.6,2.6-0.9,4-0.9c1,0,1.9,0.2,2.8,0.5s1.7,0.8,2.3,1.5c0.7,0.6,1.2,1.5,1.6,2.5c0.4,1,0.6,2.2,0.6,3.5
			c0,1.7-0.3,3.3-0.8,4.7c-0.5,1.5-1.3,2.7-2.2,3.7s-2,1.8-3.3,2.4C621.1,78.6,619.8,78.9,618.4,78.9z M618.8,78.2
			c1.1,0,2.2-0.5,3.2-1.6c1-1.1,1.8-2.5,2.4-4.3c0.6-1.8,0.9-3.8,0.9-6c0-2.1-0.4-3.7-1.3-4.8c-0.8-1.1-1.9-1.7-3.2-1.7
			c-1.1,0-2.2,0.5-3.2,1.6c-1,1.1-1.8,2.5-2.4,4.3c-0.6,1.8-0.9,3.8-0.9,6c0,2.1,0.4,3.7,1.3,4.8C616.5,77.7,617.5,78.2,618.8,78.2z
			"/>
		<path class="st0" d="M632.6,78.6c-0.6,0-1.1-0.2-1.5-0.6c-0.4-0.4-0.6-0.9-0.6-1.5c0-0.6,0.2-1.1,0.6-1.5s0.9-0.6,1.5-0.6
			c0.6,0,1.1,0.2,1.5,0.6c0.4,0.4,0.6,0.9,0.6,1.5c0,0.6-0.2,1.1-0.6,1.5C633.7,78.4,633.2,78.6,632.6,78.6z"/>
	</g>
</g>
<rect x="491.3" y="14.2" class="st0" width="4" height="66.4"/>
</svg>
